<svg xmlns="http://www.w3.org/2000/svg" width="512" height="512" viewBox="0 0 33 33" shape-rendering="crispEdges"><path fill="#ffffff" d="M0 0h33v33H0z"/><path stroke="#78350f" d="M2 2.5h7m2 0h2m2 0h7m2 0h7M2 3.5h1m5 0h1m2 0h1m4 0h4m2 0h1m1 0h1m5 0h1M2 4.5h1m1 0h3m1 0h1m1 0h3m2 0h1m6 0h1m1 0h1m1 0h3m1 0h1M2 5.5h1m1 0h3m1 0h1m1 0h1m2 0h1m1 0h2m1 0h2m1 0h2m1 0h1m1 0h3m1 0h1M2 6.5h1m1 0h3m1 0h1m4 0h1m1 0h1m1 0h5m2 0h1m1 0h3m1 0h1M2 7.5h1m5 0h1m2 0h2m1 0h7m1 0h1m1 0h1m5 0h1M2 8.5h7m1 0h1m1 0h1m1 0h1m1 0h1m1 0h1m1 0h1m1 0h1m1 0h7M11 9.5h3m1 0h2M5 10.5h2m1 0h2m2 0h1m4 0h2m1 0h1m6 0h2M2 11.5h1m1 0h3m2 0h2m1 0h1m1 0h1m1 0h4m2 0h1m3 0h1m1 0h2M2 12.5h4m2 0h1m1 0h1m1 0h4m1 0h1m1 0h1m2 0h3m3 0h1M2 13.5h1m1 0h1m1 0h1m2 0h1m1 0h1m4 0h1m1 0h1m2 0h2m2 0h3m2 0h1M4 14.5h1m1 0h11m1 0h1m1 0h5m2 0h1m1 0h1M3 15.5h1m1 0h3m1 0h1m2 0h1m3 0h5m3 0h1m1 0h1m1 0h3M2 16.5h10m2 0h3m2 0h3m3 0h1m1 0h1m2 0h1M2 17.5h1m7 0h2m1 0h1m1 0h1m2 0h2m1 0h2m3 0h3M5 18.5h2m1 0h2m1 0h1m1 0h2m1 0h1m3 0h1m6 0h1m2 0h1M2 19.5h1m1 0h1m1 0h2m1 0h5m3 0h2m1 0h3m3 0h1M2 20.5h2m2 0h1m1 0h1m3 0h1m7 0h2m4 0h1m1 0h1m1 0h1M2 21.5h2m1 0h3m1 0h1m2 0h1m1 0h8m1 0h4m1 0h1m1 0h1M2 22.5h2m1 0h1m1 0h3m1 0h2m1 0h3m4 0h8m1 0h1M10 23.5h1m3 0h1m3 0h3m1 0h1m3 0h3M2 24.5h7m1 0h3m4 0h1m1 0h1m1 0h2m1 0h1m1 0h1m1 0h2M2 25.5h1m5 0h1m2 0h1m1 0h2m1 0h3m1 0h3m3 0h2m1 0h2M2 26.5h1m1 0h3m1 0h1m1 0h2m5 0h2m2 0h6m3 0h1M2 27.5h1m1 0h3m1 0h1m1 0h1m2 0h1m1 0h1m4 0h1m4 0h1m2 0h2M2 28.5h1m1 0h3m1 0h1m2 0h1m1 0h1m1 0h1m1 0h4m1 0h2m1 0h2m1 0h3M2 29.5h1m5 0h1m3 0h2m5 0h1m3 0h2m1 0h3m1 0h1M2 30.5h7m4 0h2m1 0h1m3 0h4m1 0h2"/><rect x="198" y="198" width="116" height="116" fill="white" rx="12"/><svg xmlns="http://www.w3.org/2000/svg" x="206" y="206" width="100" height="100" viewBox="0 0 80 80">
  <defs>
    <linearGradient id="g" x1="0%" y1="0%" x2="100%" y2="100%">
      <stop offset="0%" style="stop-color:#fbbf24"/>
      <stop offset="100%" style="stop-color:#b45309"/>
    </linearGradient>
  </defs>
  <circle cx="40" cy="40" r="38" fill="url(#g)"/>
  <circle cx="40" cy="40" r="33" fill="#fef3c7"/>
  <text x="40" y="55" text-anchor="middle" font-family="Georgia, serif" font-size="38" font-weight="bold" fill="#78350f">波</text>
</svg></svg>
