<svg xmlns="http://www.w3.org/2000/svg" width="600" height="600" viewBox="0 0 600 600">
  <defs>
    <linearGradient id="bg4" x1="0%" y1="0%" x2="100%" y2="100%">
      <stop offset="0%" style="stop-color:#fee2e2"/>
      <stop offset="50%" style="stop-color:#fca5a5"/>
      <stop offset="100%" style="stop-color:#dc2626"/>
    </linearGradient>
    <radialGradient id="pot" cx="50%" cy="40%" r="50%">
      <stop offset="0%" style="stop-color:#7f1d1d"/>
      <stop offset="100%" style="stop-color:#450a0a"/>
    </radialGradient>
  </defs>
  <rect width="600" height="600" fill="url(#bg4)"/>
  
  <g transform="translate(300,340)">
    <ellipse cx="0" cy="80" rx="140" ry="25" fill="#450a0a" opacity="0.4"/>
    
    <path d="M-160,0 L-180,60 L180,60 L160,0 Z" fill="url(#pot)"/>
    <ellipse cx="0" cy="0" rx="160" ry="50" fill="#1c1917"/>
    <ellipse cx="0" cy="-5" rx="145" ry="40" fill="#dc2626" opacity="0.9"/>
    
    <g opacity="0.8">
      <ellipse cx="-80" cy="-10" rx="20" ry="10" fill="#fbbf24"/>
      <ellipse cx="-40" cy="-15" rx="15" ry="8" fill="#ef4444"/>
      <ellipse cx="0" cy="-8" rx="18" ry="9" fill="#22c55e"/>
      <ellipse cx="40" cy="-18" rx="14" ry="7" fill="#f97316"/>
      <ellipse cx="80" cy="-12" rx="16" ry="8" fill="#fbbf24"/>
      <ellipse cx="-60" cy="5" rx="12" ry="6" fill="#f97316"/>
      <ellipse cx="60" cy="8" rx="13" ry="7" fill="#ef4444"/>
    </g>
    
    <g transform="translate(-180,20)">
      <rect x="-15" y="-20" width="30" height="40" rx="5" fill="#78350f"/>
    </g>
    <g transform="translate(180,20)">
      <rect x="-15" y="-20" width="30" height="40" rx="5" fill="#78350f"/>
    </g>
  </g>
  
  <g transform="translate(200,150)" opacity="0.5">
    <path d="M0,0 Q-5,-40 5,-70 Q15,-40 10,0" fill="#fef3c7"/>
    <path d="M-20,10 Q-25,-30 -15,-60" stroke="#fef3c7" stroke-width="4" fill="none"/>
    <path d="M25,5 Q30,-35 20,-65" stroke="#fef3c7" stroke-width="4" fill="none"/>
  </g>
  <g transform="translate(420,170)" opacity="0.4">
    <path d="M0,0 Q-8,-35 0,-60 Q8,-35 0,0" fill="#fef3c7"/>
  </g>
  
  <text x="300" y="550" text-anchor="middle" font-family="serif" font-size="32" font-weight="bold" fill="#7f1d1d">茶馆里的山城火锅</text>
</svg>