<svg xmlns="http://www.w3.org/2000/svg" width="600" height="600" viewBox="0 0 600 600">
  <defs>
    <linearGradient id="bg2" x1="0%" y1="0%" x2="100%" y2="100%">
      <stop offset="0%" style="stop-color:#fce7f3"/>
      <stop offset="50%" style="stop-color:#f9a8d4"/>
      <stop offset="100%" style="stop-color:#db2777"/>
    </linearGradient>
  </defs>
  <rect width="600" height="600" fill="url(#bg2)"/>
  
  <g transform="translate(300,300)">
    <rect x="-150" y="-80" width="300" height="200" rx="10" fill="#831843" opacity="0.4"/>
    
    <g transform="translate(-100,-40)">
      <circle cx="0" cy="0" r="15" fill="#fef3c7" opacity="0.9"/>
      <rect x="-3" y="15" width="6" height="30" fill="#78350f" opacity="0.6"/>
    </g>
    <g transform="translate(-50,-20)">
      <circle cx="0" cy="0" r="12" fill="#fef3c7" opacity="0.8"/>
      <rect x="-2" y="12" width="4" height="25" fill="#78350f" opacity="0.5"/>
    </g>
    <g transform="translate(0,-50)">
      <circle cx="0" cy="0" r="18" fill="#fef3c7" opacity="1"/>
      <rect x="-3" y="18" width="6" height="35" fill="#78350f" opacity="0.6"/>
    </g>
    <g transform="translate(50,-20)">
      <circle cx="0" cy="0" r="12" fill="#fef3c7" opacity="0.8"/>
      <rect x="-2" y="12" width="4" height="25" fill="#78350f" opacity="0.5"/>
    </g>
    <g transform="translate(100,-40)">
      <circle cx="0" cy="0" r="15" fill="#fef3c7" opacity="0.9"/>
      <rect x="-3" y="15" width="6" height="30" fill="#78350f" opacity="0.6"/>
    </g>
    
    <ellipse cx="-60" cy="60" rx="40" ry="15" fill="#fbbf24" opacity="0.7"/>
    <ellipse cx="60" cy="70" rx="35" ry="12" fill="#f97316" opacity="0.7"/>
    <ellipse cx="0" cy="80" rx="45" ry="18" fill="#ef4444" opacity="0.6"/>
  </g>
  
  <g transform="translate(100,500)">
    <rect x="0" y="0" width="40" height="60" rx="3" fill="#78350f" opacity="0.5"/>
    <polygon points="20,-15 0,0 40,0" fill="#dc2626" opacity="0.8"/>
  </g>
  <g transform="translate(460,480)">
    <rect x="0" y="0" width="50" height="80" rx="3" fill="#78350f" opacity="0.5"/>
    <polygon points="25,-20 0,0 50,0" fill="#f59e0b" opacity="0.8"/>
  </g>
  
  <text x="300" y="570" text-anchor="middle" font-family="serif" font-size="36" font-weight="bold" fill="#831843">吉庆街的烟火气</text>
</svg>