<svg xmlns="http://www.w3.org/2000/svg" width="600" height="600" viewBox="0 0 600 600">
  <defs>
    <linearGradient id="bg6" x1="0%" y1="0%" x2="100%" y2="100%">
      <stop offset="0%" style="stop-color:#1e1b4b"/>
      <stop offset="50%" style="stop-color:#312e81"/>
      <stop offset="100%" style="stop-color:#4c1d95"/>
    </linearGradient>
  </defs>
  <rect width="600" height="600" fill="url(#bg6)"/>
  
  <g fill="#fef3c7" opacity="0.9">
    <circle cx="100" cy="100" r="2"/>
    <circle cx="200" cy="80" r="1.5"/>
    <circle cx="500" cy="120" r="2"/>
    <circle cx="450" cy="60" r="1"/>
    <circle cx="150" cy="200" r="1.5"/>
    <circle cx="520" cy="180" r="2"/>
    <circle cx="80" cy="250" r="1"/>
    <circle cx="300" cy="70" r="2"/>
    <circle cx="350" cy="130" r="1.5"/>
    <circle cx="250" cy="150" r="1"/>
  </g>
  
  <g transform="translate(300,350)">
    <ellipse cx="0" cy="70" rx="140" ry="25" fill="#000" opacity="0.5"/>
    
    <path d="M-160,0 L-180,60 L180,60 L160,0 Z" fill="#1c1917"/>
    <ellipse cx="0" cy="0" rx="160" ry="50" fill="#0c0a09"/>
    <ellipse cx="0" cy="-5" rx="145" ry="40" fill="#b91c1c" opacity="0.9"/>
    
    <g opacity="0.9">
      <ellipse cx="-90" cy="-10" rx="18" ry="9" fill="#fbbf24"/>
      <ellipse cx="-50" cy="-15" rx="14" ry="7" fill="#ef4444"/>
      <ellipse cx="-10" cy="-8" rx="16" ry="8" fill="#22c55e"/>
      <ellipse cx="30" cy="-18" rx="12" ry="6" fill="#f97316"/>
      <ellipse cx="70" cy="-12" rx="15" ry="7" fill="#fbbf24"/>
      <ellipse cx="100" cy="-5" rx="13" ry="6" fill="#ef4444"/>
      <ellipse cx="-70" cy="5" rx="11" ry="5" fill="#f97316"/>
      <ellipse cx="50" cy="10" rx="12" ry="6" fill="#22c55e"/>
    </g>
    
    <ellipse cx="0" cy="-20" rx="60" ry="15" fill="#fbbf24" opacity="0.2"/>
    
    <g transform="translate(-180,20)">
      <rect x="-15" y="-20" width="30" height="40" rx="5" fill="#292524"/>
    </g>
    <g transform="translate(180,20)">
      <rect x="-15" y="-20" width="30" height="40" rx="5" fill="#292524"/>
    </g>
  </g>
  
  <g transform="translate(300,160)" opacity="0.6">
    <path d="M0,0 Q-5,-45 8,-80 Q18,-45 12,0" fill="#fef3c7"/>
    <path d="M-25,10 Q-30,-40 -15,-70" stroke="#fef3c7" stroke-width="4" fill="none"/>
    <path d="M30,5 Q35,-45 22,-75" stroke="#fef3c7" stroke-width="4" fill="none"/>
  </g>
  
  <text x="300" y="550" text-anchor="middle" font-family="serif" font-size="32" font-weight="bold" fill="#fbbf24">满天星太珍火锅</text>
</svg>