<svg xmlns="http://www.w3.org/2000/svg" width="600" height="600" viewBox="0 0 600 600">
  <defs>
    <linearGradient id="bg3" x1="0%" y1="0%" x2="100%" y2="100%">
      <stop offset="0%" style="stop-color:#fffbeb"/>
      <stop offset="50%" style="stop-color:#fde68a"/>
      <stop offset="100%" style="stop-color:#d97706"/>
    </linearGradient>
  </defs>
  <rect width="600" height="600" fill="url(#bg3)"/>
  
  <g transform="translate(300,320)">
    <ellipse cx="0" cy="50" rx="130" ry="30" fill="#78350f" opacity="0.3"/>
    <ellipse cx="0" cy="0" rx="120" ry="80" fill="#fef3c7"/>
    <ellipse cx="0" cy="-10" rx="110" ry="70" fill="#d97706" opacity="0.8"/>
    
    <g opacity="0.7">
      <path d="M-80,-20 Q-40,-40 0,-25 Q40,-10 80,-30" stroke="#78350f" stroke-width="4" fill="none"/>
      <path d="M-70,-10 Q-30,-30 10,-15 Q50,0 90,-20" stroke="#78350f" stroke-width="4" fill="none"/>
      <path d="M-85,0 Q-45,-20 -5,-5 Q35,10 75,-10" stroke="#78350f" stroke-width="4" fill="none"/>
      <path d="M-75,10 Q-35,-10 5,5 Q45,20 85,0" stroke="#78350f" stroke-width="4" fill="none"/>
      <path d="M-60,20 Q-20,0 20,15 Q60,30 70,15" stroke="#78350f" stroke-width="4" fill="none"/>
    </g>
    
    <ellipse cx="-50" cy="-25" rx="15" ry="8" fill="#16a34a" opacity="0.8"/>
    <ellipse cx="30" cy="-30" rx="12" ry="6" fill="#16a34a" opacity="0.7"/>
    <ellipse cx="60" cy="-10" rx="10" ry="5" fill="#16a34a" opacity="0.8"/>
    
    <g transform="translate(0,-80)">
      <rect x="-4" y="0" width="8" height="50" fill="#78350f" opacity="0.6"/>
      <ellipse cx="0" cy="0" rx="15" ry="8" fill="#92400e" opacity="0.8"/>
    </g>
  </g>
  
  <g transform="translate(150,180)" opacity="0.4">
    <path d="M0,0 Q-10,-30 0,-60 Q10,-30 0,0" fill="#fef3c7"/>
    <path d="M20,10 Q15,-25 30,-50" stroke="#fef3c7" stroke-width="3" fill="none"/>
    <path d="M-20,5 Q-25,-30 -10,-55" stroke="#fef3c7" stroke-width="3" fill="none"/>
  </g>
  
  <text x="300" y="550" text-anchor="middle" font-family="serif" font-size="36" font-weight="bold" fill="#78350f">热干面的秘密</text>
</svg>