<svg xmlns="http://www.w3.org/2000/svg" width="600" height="600" viewBox="0 0 600 600">
  <defs>
    <linearGradient id="bg1" x1="0%" y1="0%" x2="100%" y2="100%">
      <stop offset="0%" style="stop-color:#fef3c7"/>
      <stop offset="30%" style="stop-color:#fde68a"/>
      <stop offset="70%" style="stop-color:#f59e0b"/>
      <stop offset="100%" style="stop-color:#b45309"/>
    </linearGradient>
    <radialGradient id="sunGlow" cx="50%" cy="35%" r="50%">
      <stop offset="0%" style="stop-color:#fffbeb;stop-opacity:1"/>
      <stop offset="40%" style="stop-color:#fcd34d;stop-opacity:0.6"/>
      <stop offset="100%" style="stop-color:#f59e0b;stop-opacity:0"/>
    </radialGradient>
    <linearGradient id="building1" x1="0%" y1="0%" x2="0%" y2="100%">
      <stop offset="0%" style="stop-color:#78350f"/>
      <stop offset="100%" style="stop-color:#451a03"/>
    </linearGradient>
    <filter id="softShadow" x="-50%" y="-50%" width="200%" height="200%">
      <feGaussianBlur in="SourceAlpha" stdDeviation="3"/>
      <feOffset dx="0" dy="2" result="offsetblur"/>
      <feComponentTransfer>
        <feFuncA type="linear" slope="0.3"/>
      </feComponentTransfer>
      <feMerge>
        <feMergeNode/>
        <feMergeNode in="SourceGraphic"/>
      </feMerge>
    </filter>
  </defs>
  
  <rect width="600" height="600" fill="url(#bg1)"/>
  
  <circle cx="300" cy="200" r="200" fill="url(#sunGlow)"/>
  <circle cx="300" cy="200" r="55" fill="#fffbeb" filter="url(#softShadow)"/>
  
  <g opacity="0.15">
    <circle cx="120" cy="100" r="3" fill="#fff"/>
    <circle cx="480" cy="120" r="2" fill="#fff"/>
    <circle cx="500" cy="200" r="2.5" fill="#fff"/>
    <circle cx="80" cy="180" r="2" fill="#fff"/>
  </g>
  
  <g transform="translate(80,380)" fill="url(#building1)" opacity="0.7">
    <rect x="0" y="0" width="45" height="120"/>
    <polygon points="0,0 22,-20 45,0"/>
    <rect x="8" y="15" width="8" height="10" fill="#fef3c7" opacity="0.6"/>
    <rect x="25" y="15" width="8" height="10" fill="#fef3c7" opacity="0.5"/>
    <rect x="8" y="35" width="8" height="10" fill="#fef3c7" opacity="0.4"/>
    <rect x="25" y="35" width="8" height="10" fill="#fef3c7" opacity="0.6"/>
    <rect x="8" y="55" width="8" height="10" fill="#fef3c7" opacity="0.5"/>
    <rect x="25" y="55" width="8" height="10" fill="#fef3c7" opacity="0.4"/>
  </g>
  <g transform="translate(140,360)" fill="url(#building1)" opacity="0.75">
    <rect x="0" y="0" width="60" height="140"/>
    <polygon points="0,0 30,-25 60,0"/>
    <rect x="10" y="20" width="10" height="12" fill="#fef3c7" opacity="0.7"/>
    <rect x="30" y="20" width="10" height="12" fill="#fef3c7" opacity="0.5"/>
    <rect x="10" y="45" width="10" height="12" fill="#fef3c7" opacity="0.6"/>
    <rect x="30" y="45" width="10" height="12" fill="#fef3c7" opacity="0.7"/>
    <rect x="10" y="70" width="10" height="12" fill="#fef3c7" opacity="0.5"/>
    <rect x="30" y="70" width="10" height="12" fill="#fef3c7" opacity="0.6"/>
    <rect x="10" y="95" width="10" height="12" fill="#fef3c7" opacity="0.4"/>
    <rect x="30" y="95" width="10" height="12" fill="#fef3c7" opacity="0.5"/>
  </g>
  <g transform="translate(220,340)" fill="url(#building1)" opacity="0.8">
    <rect x="0" y="0" width="55" height="160"/>
    <rect x="8" y="15" width="10" height="12" fill="#fef3c7" opacity="0.8"/>
    <rect x="28" y="15" width="10" height="12" fill="#fef3c7" opacity="0.6"/>
    <rect x="8" y="40" width="10" height="12" fill="#fef3c7" opacity="0.7"/>
    <rect x="28" y="40" width="10" height="12" fill="#fef3c7" opacity="0.8"/>
    <rect x="8" y="65" width="10" height="12" fill="#fef3c7" opacity="0.5"/>
    <rect x="28" y="65" width="10" height="12" fill="#fef3c7" opacity="0.7"/>
    <rect x="8" y="90" width="10" height="12" fill="#fef3c7" opacity="0.6"/>
    <rect x="28" y="90" width="10" height="12" fill="#fef3c7" opacity="0.5"/>
    <rect x="8" y="115" width="10" height="12" fill="#fef3c7" opacity="0.7"/>
    <rect x="28" y="115" width="10" height="12" fill="#fef3c7" opacity="0.6"/>
  </g>
  <g transform="translate(295,320)" fill="url(#building1)" opacity="0.85">
    <rect x="0" y="0" width="70" height="180"/>
    <polygon points="0,0 35,-30 70,0"/>
    <rect x="10" y="20" width="12" height="14" fill="#fef3c7" opacity="0.9"/>
    <rect x="32" y="20" width="12" height="14" fill="#fef3c7" opacity="0.7"/>
    <rect x="54" y="20" width="12" height="14" fill="#fef3c7" opacity="0.8"/>
    <rect x="10" y="50" width="12" height="14" fill="#fef3c7" opacity="0.6"/>
    <rect x="32" y="50" width="12" height="14" fill="#fef3c7" opacity="0.9"/>
    <rect x="54" y="50" width="12" height="14" fill="#fef3c7" opacity="0.7"/>
    <rect x="10" y="80" width="12" height="14" fill="#fef3c7" opacity="0.8"/>
    <rect x="32" y="80" width="12" height="14" fill="#fef3c7" opacity="0.6"/>
    <rect x="54" y="80" width="12" height="14" fill="#fef3c7" opacity="0.9"/>
    <rect x="10" y="110" width="12" height="14" fill="#fef3c7" opacity="0.7"/>
    <rect x="32" y="110" width="12" height="14" fill="#fef3c7" opacity="0.8"/>
    <rect x="54" y="110" width="12" height="14" fill="#fef3c7" opacity="0.6"/>
    <rect x="10" y="140" width="12" height="14" fill="#fef3c7" opacity="0.5"/>
    <rect x="32" y="140" width="12" height="14" fill="#fef3c7" opacity="0.7"/>
    <rect x="54" y="140" width="12" height="14" fill="#fef3c7" opacity="0.8"/>
  </g>
  <g transform="translate(385,345)" fill="url(#building1)" opacity="0.78">
    <rect x="0" y="0" width="50" height="155"/>
    <rect x="8" y="15" width="10" height="12" fill="#fef3c7" opacity="0.7"/>
    <rect x="28" y="15" width="10" height="12" fill="#fef3c7" opacity="0.5"/>
    <rect x="8" y="40" width="10" height="12" fill="#fef3c7" opacity="0.6"/>
    <rect x="28" y="40" width="10" height="12" fill="#fef3c7" opacity="0.8"/>
    <rect x="8" y="65" width="10" height="12" fill="#fef3c7" opacity="0.5"/>
    <rect x="28" y="65" width="10" height="12" fill="#fef3c7" opacity="0.7"/>
    <rect x="8" y="90" width="10" height="12" fill="#fef3c7" opacity="0.7"/>
    <rect x="28" y="90" width="10" height="12" fill="#fef3c7" opacity="0.6"/>
    <rect x="8" y="115" width="10" height="12" fill="#fef3c7" opacity="0.4"/>
    <rect x="28" y="115" width="10" height="12" fill="#fef3c7" opacity="0.5"/>
  </g>
  <g transform="translate(455,370)" fill="url(#building1)" opacity="0.7">
    <rect x="0" y="0" width="65" height="130"/>
    <polygon points="0,0 32,-22 65,0"/>
    <rect x="10" y="20" width="10" height="12" fill="#fef3c7" opacity="0.6"/>
    <rect x="30" y="20" width="10" height="12" fill="#fef3c7" opacity="0.7"/>
    <rect x="50" y="20" width="10" height="12" fill="#fef3c7" opacity="0.5"/>
    <rect x="10" y="45" width="10" height="12" fill="#fef3c7" opacity="0.8"/>
    <rect x="30" y="45" width="10" height="12" fill="#fef3c7" opacity="0.5"/>
    <rect x="50" y="45" width="10" height="12" fill="#fef3c7" opacity="0.6"/>
    <rect x="10" y="70" width="10" height="12" fill="#fef3c7" opacity="0.5"/>
    <rect x="30" y="70" width="10" height="12" fill="#fef3c7" opacity="0.7"/>
    <rect x="50" y="70" width="10" height="12" fill="#fef3c7" opacity="0.8"/>
    <rect x="10" y="95" width="10" height="12" fill="#fef3c7" opacity="0.6"/>
    <rect x="30" y="95" width="10" height="12" fill="#fef3c7" opacity="0.4"/>
    <rect x="50" y="95" width="10" height="12" fill="#fef3c7" opacity="0.5"/>
  </g>
  
  <path d="M0,500 Q150,480 300,490 Q450,500 600,485 L600,600 L0,600 Z" fill="#78350f" opacity="0.3"/>
  
  <rect x="0" y="420" width="600" height="180" fill="url(#bg1)" opacity="0.0"/>
  <rect x="0" y="0" width="600" height="600" fill="url(#sunGlow)" opacity="0.3"/>
  
  <rect x="0" y="480" width="600" height="120">
    <animate attributeName="opacity" values="0.05;0.12;0.05" dur="4s" repeatCount="indefinite"/>
  </rect>
  
  <text x="300" y="560" text-anchor="middle" font-family="Georgia, serif" font-size="38" font-weight="bold" fill="#78350f" opacity="0.9">早安武汉</text>
</svg>