<svg xmlns="http://www.w3.org/2000/svg" width="600" height="600" viewBox="0 0 600 600">
  <defs>
    <linearGradient id="bg5" x1="0%" y1="0%" x2="100%" y2="100%">
      <stop offset="0%" style="stop-color:#fef3c7"/>
      <stop offset="50%" style="stop-color:#fcd34d"/>
      <stop offset="100%" style="stop-color:#b45309"/>
    </linearGradient>
  </defs>
  <rect width="600" height="600" fill="url(#bg5)"/>
  
  <g transform="translate(300,330)">
    <ellipse cx="0" cy="90" rx="120" ry="25" fill="#78350f" opacity="0.3"/>
    
    <path d="M-130,0 L-150,80 L150,80 L130,0 Z" fill="#78350f"/>
    <ellipse cx="0" cy="0" rx="130" ry="45" fill="#fef3c7"/>
    <ellipse cx="0" cy="-5" rx="118" ry="35" fill="#d97706" opacity="0.7"/>
    
    <g opacity="0.9">
      <ellipse cx="-60" cy="-5" rx="25" ry="12" fill="#a16207"/>
      <ellipse cx="-60" cy="-5" rx="18" ry="8" fill="#92400e"/>
      <ellipse cx="-30" cy="-8" rx="5" ry="3" fill="#fef3c7" opacity="0.6"/>
      
      <ellipse cx="20" cy="0" rx="22" ry="10" fill="#a16207"/>
      <ellipse cx="20" cy="0" rx="16" ry="7" fill="#92400e"/>
      <ellipse cx="50" cy="-5" rx="20" ry="9" fill="#a16207"/>
      <ellipse cx="50" cy="-5" rx="14" ry="6" fill="#92400e"/>
      
      <ellipse cx="-30" cy="10" rx="8" ry="4" fill="#16a34a" opacity="0.8"/>
      <ellipse cx="70" cy="8" rx="6" ry="3" fill="#16a34a" opacity="0.7"/>
    </g>
    
    <g transform="translate(-140,30)">
      <rect x="-10" y="-15" width="20" height="35" rx="3" fill="#92400e"/>
    </g>
    <g transform="translate(140,30)">
      <rect x="-10" y="-15" width="20" height="35" rx="3" fill="#92400e"/>
    </g>
  </g>
  
  <g transform="translate(300,180)" opacity="0.3">
    <ellipse cx="0" cy="0" rx="30" ry="15" fill="#fef3c7"/>
    <ellipse cx="40" cy="-20" rx="20" ry="10" fill="#fef3c7"/>
    <ellipse cx="-35" cy="-10" rx="25" ry="12" fill="#fef3c7"/>
  </g>
  
  <text x="300" y="550" text-anchor="middle" font-family="serif" font-size="36" font-weight="bold" fill="#78350f">藕汤印象</text>
</svg>